<mxfile host="app.diagrams.net" modified="2021-01-26T00:48:29.334Z" agent="5.0 (Windows NT 10.0; Win64; x64) AppleWebKit/537.36 (KHTML, like Gecko) Chrome/88.0.4324.96 Safari/537.36" etag="DK_u87BwsDGMoaVh92Fo" version="14.2.7" type="github">
  <diagram id="pw-UhA4bVbsIZPBGn39f" name="Page-1">
    <mxGraphModel dx="1422" dy="798" grid="1" gridSize="10" guides="1" tooltips="1" connect="1" arrows="1" fold="1" page="1" pageScale="1" pageWidth="827" pageHeight="1169" math="0" shadow="0">
      <root>
        <mxCell id="0" />
        <mxCell id="1" parent="0" />
        <mxCell id="QxokFeNL90Z49nIb5HnK-1" value="cliente" style="rounded=0;whiteSpace=wrap;html=1;" vertex="1" parent="1">
          <mxGeometry x="230" y="190" width="120" height="60" as="geometry" />
        </mxCell>
        <mxCell id="QxokFeNL90Z49nIb5HnK-3" value="id_cliente" style="ellipse;whiteSpace=wrap;html=1;" vertex="1" parent="1">
          <mxGeometry y="200" width="120" height="40" as="geometry" />
        </mxCell>
        <mxCell id="QxokFeNL90Z49nIb5HnK-4" value="id_suscripcion" style="ellipse;whiteSpace=wrap;html=1;" vertex="1" parent="1">
          <mxGeometry x="50" y="159" width="120" height="40" as="geometry" />
        </mxCell>
        <mxCell id="QxokFeNL90Z49nIb5HnK-7" value="nombre_cliente" style="ellipse;whiteSpace=wrap;html=1;" vertex="1" parent="1">
          <mxGeometry x="110" y="119" width="120" height="40" as="geometry" />
        </mxCell>
        <mxCell id="QxokFeNL90Z49nIb5HnK-8" value="apellido_cliente" style="ellipse;whiteSpace=wrap;html=1;" vertex="1" parent="1">
          <mxGeometry x="170" y="79" width="120" height="40" as="geometry" />
        </mxCell>
        <mxCell id="QxokFeNL90Z49nIb5HnK-9" value="telefono" style="ellipse;whiteSpace=wrap;html=1;" vertex="1" parent="1">
          <mxGeometry x="300" y="79" width="120" height="40" as="geometry" />
        </mxCell>
        <mxCell id="QxokFeNL90Z49nIb5HnK-10" value="&lt;span style=&quot;font-weight: normal&quot;&gt;email&lt;/span&gt;" style="ellipse;whiteSpace=wrap;html=1;fontStyle=1" vertex="1" parent="1">
          <mxGeometry x="370" y="119" width="120" height="40" as="geometry" />
        </mxCell>
        <mxCell id="QxokFeNL90Z49nIb5HnK-11" style="edgeStyle=orthogonalEdgeStyle;rounded=0;orthogonalLoop=1;jettySize=auto;html=1;exitX=0.5;exitY=1;exitDx=0;exitDy=0;" edge="1" parent="1" source="QxokFeNL90Z49nIb5HnK-10" target="QxokFeNL90Z49nIb5HnK-10">
          <mxGeometry relative="1" as="geometry" />
        </mxCell>
        <mxCell id="QxokFeNL90Z49nIb5HnK-12" value="&lt;span style=&quot;font-weight: normal&quot;&gt;dia_de_pago_suscripcion&lt;/span&gt;" style="ellipse;whiteSpace=wrap;html=1;fontStyle=1" vertex="1" parent="1">
          <mxGeometry x="414" y="159" width="160" height="40" as="geometry" />
        </mxCell>
        <mxCell id="QxokFeNL90Z49nIb5HnK-13" value="&lt;span style=&quot;font-weight: normal&quot;&gt;usuario_activo&lt;/span&gt;" style="ellipse;whiteSpace=wrap;html=1;fontStyle=1" vertex="1" parent="1">
          <mxGeometry x="470" y="200" width="120" height="40" as="geometry" />
        </mxCell>
      </root>
    </mxGraphModel>
  </diagram>
</mxfile>
